<mxfile host="app.diagrams.net" modified="2023-09-18T01:32:59.072Z" agent="Mozilla/5.0 (Macintosh; Intel Mac OS X 10_15_7) AppleWebKit/537.36 (KHTML, like Gecko) Chrome/116.0.0.0 Safari/537.36" etag="n9W6rmpjLbkld2xLyFOD" version="21.7.5" type="google">
  <diagram name="Page-1" id="XBnbTzYaKGzwLp61XRmF">
    <mxGraphModel grid="0" page="0" gridSize="10" guides="1" tooltips="1" connect="1" arrows="1" fold="1" pageScale="1" pageWidth="850" pageHeight="1100" math="0" shadow="0">
      <root>
        <mxCell id="0" />
        <mxCell id="1" parent="0" />
        <mxCell id="sqUDbuYJrRxBl_-GvHNo-8" style="edgeStyle=orthogonalEdgeStyle;rounded=0;orthogonalLoop=1;jettySize=auto;html=1;" edge="1" parent="1" source="sqUDbuYJrRxBl_-GvHNo-3" target="sqUDbuYJrRxBl_-GvHNo-4">
          <mxGeometry relative="1" as="geometry" />
        </mxCell>
        <mxCell id="sqUDbuYJrRxBl_-GvHNo-3" value="Windows Server 2012&lt;br&gt;Domain Controller&lt;br&gt;File Server&lt;br&gt;Active Directory&lt;br&gt;DNS&lt;br&gt;&amp;nbsp;" style="image;aspect=fixed;perimeter=ellipsePerimeter;html=1;align=center;shadow=0;dashed=0;spacingTop=3;image=img/lib/active_directory/windows_server_2.svg;" vertex="1" parent="1">
          <mxGeometry x="-98" y="81.25" width="107" height="133.75" as="geometry" />
        </mxCell>
        <mxCell id="sqUDbuYJrRxBl_-GvHNo-4" value="Windows Server 2019&lt;br&gt;Domain Controller&lt;br&gt;File Server&lt;br&gt;Active Directory&lt;br&gt;DNS&lt;br&gt;&lt;br&gt;Infrastructure Master&lt;br&gt;PDC Emulator&lt;br&gt;Schema Master&lt;br&gt;Domain Naming Master&lt;br&gt;RID Master&lt;br&gt;&amp;nbsp;" style="image;aspect=fixed;perimeter=ellipsePerimeter;html=1;align=center;shadow=0;dashed=0;spacingTop=3;image=img/lib/active_directory/windows_server_2.svg;" vertex="1" parent="1">
          <mxGeometry x="-103" y="334" width="107" height="133.75" as="geometry" />
        </mxCell>
        <mxCell id="sqUDbuYJrRxBl_-GvHNo-6" style="edgeStyle=orthogonalEdgeStyle;rounded=0;orthogonalLoop=1;jettySize=auto;html=1;" edge="1" parent="1" source="sqUDbuYJrRxBl_-GvHNo-5" target="sqUDbuYJrRxBl_-GvHNo-4">
          <mxGeometry relative="1" as="geometry">
            <Array as="points">
              <mxPoint x="135" y="333" />
              <mxPoint x="135" y="394" />
            </Array>
          </mxGeometry>
        </mxCell>
        <mxCell id="sqUDbuYJrRxBl_-GvHNo-7" value="Joined to Domain" style="edgeLabel;html=1;align=center;verticalAlign=middle;resizable=0;points=[];" connectable="0" vertex="1" parent="sqUDbuYJrRxBl_-GvHNo-6">
          <mxGeometry x="-0.814" y="-3" relative="1" as="geometry">
            <mxPoint x="-45" y="5" as="offset" />
          </mxGeometry>
        </mxCell>
        <mxCell id="sqUDbuYJrRxBl_-GvHNo-5" value="Windows 10 Client" style="image;sketch=0;aspect=fixed;html=1;points=[];align=center;fontSize=12;image=img/lib/mscae/VirtualMachineWindows.svg;" vertex="1" parent="1">
          <mxGeometry x="225" y="273" width="91" height="83.72" as="geometry" />
        </mxCell>
        <mxCell id="sqUDbuYJrRxBl_-GvHNo-11" style="edgeStyle=orthogonalEdgeStyle;rounded=0;orthogonalLoop=1;jettySize=auto;html=1;" edge="1" parent="1" source="sqUDbuYJrRxBl_-GvHNo-10" target="sqUDbuYJrRxBl_-GvHNo-4">
          <mxGeometry relative="1" as="geometry">
            <Array as="points">
              <mxPoint x="501" y="416" />
              <mxPoint x="249" y="416" />
              <mxPoint x="249" y="391" />
            </Array>
          </mxGeometry>
        </mxCell>
        <mxCell id="sqUDbuYJrRxBl_-GvHNo-12" value="Joined to Domain" style="edgeLabel;html=1;align=center;verticalAlign=middle;resizable=0;points=[];" connectable="0" vertex="1" parent="sqUDbuYJrRxBl_-GvHNo-11">
          <mxGeometry x="-0.4075" y="2" relative="1" as="geometry">
            <mxPoint as="offset" />
          </mxGeometry>
        </mxCell>
        <mxCell id="sqUDbuYJrRxBl_-GvHNo-10" value="SSH Key Server" style="image;sketch=0;aspect=fixed;html=1;points=[];align=center;fontSize=12;image=img/lib/mscae/VM_Linux.svg;" vertex="1" parent="1">
          <mxGeometry x="422" y="288" width="101.09" height="93" as="geometry" />
        </mxCell>
        <mxCell id="sqUDbuYJrRxBl_-GvHNo-16" style="edgeStyle=orthogonalEdgeStyle;rounded=0;orthogonalLoop=1;jettySize=auto;html=1;entryX=1.009;entryY=0.398;entryDx=0;entryDy=0;entryPerimeter=0;" edge="1" parent="1" source="sqUDbuYJrRxBl_-GvHNo-13" target="sqUDbuYJrRxBl_-GvHNo-10">
          <mxGeometry relative="1" as="geometry" />
        </mxCell>
        <mxCell id="yKaiz2Vor4ZhH1M9KWII-53" style="edgeStyle=orthogonalEdgeStyle;rounded=0;orthogonalLoop=1;jettySize=auto;html=1;" edge="1" parent="1" source="sqUDbuYJrRxBl_-GvHNo-13">
          <mxGeometry relative="1" as="geometry">
            <mxPoint x="813" y="319" as="targetPoint" />
          </mxGeometry>
        </mxCell>
        <mxCell id="sqUDbuYJrRxBl_-GvHNo-13" value="mdelacruz-red" style="image;sketch=0;aspect=fixed;html=1;points=[];align=center;fontSize=12;image=img/lib/mscae/VM_Linux.svg;" vertex="1" parent="1">
          <mxGeometry x="649" y="281.72" width="101.09" height="93" as="geometry" />
        </mxCell>
        <mxCell id="sqUDbuYJrRxBl_-GvHNo-22" value="MD.pub" style="sketch=0;pointerEvents=1;shadow=0;dashed=0;html=1;strokeColor=none;labelPosition=center;verticalLabelPosition=bottom;verticalAlign=top;outlineConnect=0;align=center;shape=mxgraph.office.security.key_permissions;fillColor=#7FBA42;container=0;" vertex="1" parent="1">
          <mxGeometry x="402" y="215" width="25" height="53" as="geometry" />
        </mxCell>
        <mxCell id="yKaiz2Vor4ZhH1M9KWII-10" style="edgeStyle=orthogonalEdgeStyle;rounded=0;orthogonalLoop=1;jettySize=auto;html=1;" edge="1" parent="1">
          <mxGeometry relative="1" as="geometry">
            <mxPoint x="611" y="327.5" as="targetPoint" />
            <mxPoint x="645" y="128" as="sourcePoint" />
          </mxGeometry>
        </mxCell>
        <mxCell id="yKaiz2Vor4ZhH1M9KWII-21" style="edgeStyle=orthogonalEdgeStyle;rounded=0;orthogonalLoop=1;jettySize=auto;html=1;entryX=0.523;entryY=0.097;entryDx=0;entryDy=0;entryPerimeter=0;" edge="1" parent="1">
          <mxGeometry relative="1" as="geometry">
            <mxPoint x="757" y="133" as="sourcePoint" />
            <mxPoint x="0.0010000000000118803" y="391.47375" as="targetPoint" />
            <Array as="points">
              <mxPoint x="759" y="133" />
              <mxPoint x="797" y="133" />
              <mxPoint x="797" y="135" />
              <mxPoint x="811" y="135" />
              <mxPoint x="811" y="656" />
              <mxPoint x="184" y="656" />
              <mxPoint x="184" y="392" />
            </Array>
          </mxGeometry>
        </mxCell>
        <mxCell id="yKaiz2Vor4ZhH1M9KWII-24" value="Joined to Domain" style="edgeLabel;html=1;align=center;verticalAlign=middle;resizable=0;points=[];" connectable="0" vertex="1" parent="yKaiz2Vor4ZhH1M9KWII-21">
          <mxGeometry x="0.0917" y="1" relative="1" as="geometry">
            <mxPoint as="offset" />
          </mxGeometry>
        </mxCell>
        <mxCell id="yKaiz2Vor4ZhH1M9KWII-4" value="aacevedo-red" style="image;sketch=0;aspect=fixed;html=1;points=[];align=center;fontSize=12;image=img/lib/mscae/VM_Linux.svg;" vertex="1" parent="1">
          <mxGeometry x="649" y="84.00000000000003" width="101.09" height="93" as="geometry" />
        </mxCell>
        <mxCell id="yKaiz2Vor4ZhH1M9KWII-6" value="" style="group" connectable="0" vertex="1" parent="1">
          <mxGeometry x="666" y="15" width="68" height="50" as="geometry" />
        </mxCell>
        <mxCell id="sqUDbuYJrRxBl_-GvHNo-19" value="AA.pub" style="sketch=0;pointerEvents=1;shadow=0;dashed=0;html=1;strokeColor=none;labelPosition=center;verticalLabelPosition=bottom;verticalAlign=top;outlineConnect=0;align=center;shape=mxgraph.office.security.key_permissions;fillColor=#7FBA42;container=0;" vertex="1" parent="yKaiz2Vor4ZhH1M9KWII-6">
          <mxGeometry x="38.004285714285714" y="1.82" width="24.285714285714285" height="48.18181818181818" as="geometry" />
        </mxCell>
        <mxCell id="sqUDbuYJrRxBl_-GvHNo-20" value="" style="sketch=0;pointerEvents=1;shadow=0;dashed=0;html=1;strokeColor=none;labelPosition=center;verticalLabelPosition=bottom;verticalAlign=top;outlineConnect=0;align=center;shape=mxgraph.office.security.key_permissions;fillColor=#DA4026;" vertex="1" parent="yKaiz2Vor4ZhH1M9KWII-6">
          <mxGeometry y="1.8181818181818181" width="26.228571428571428" height="48.18181818181818" as="geometry" />
        </mxCell>
        <mxCell id="yKaiz2Vor4ZhH1M9KWII-7" value="" style="group" connectable="0" vertex="1" parent="1">
          <mxGeometry x="666" y="218" width="69" height="45" as="geometry" />
        </mxCell>
        <mxCell id="yKaiz2Vor4ZhH1M9KWII-8" value="MD.pub" style="sketch=0;pointerEvents=1;shadow=0;dashed=0;html=1;strokeColor=none;labelPosition=center;verticalLabelPosition=bottom;verticalAlign=top;outlineConnect=0;align=center;shape=mxgraph.office.security.key_permissions;fillColor=#7FBA42;container=0;" vertex="1" parent="yKaiz2Vor4ZhH1M9KWII-7">
          <mxGeometry x="33.99714285714286" y="1.64" width="24.642857142857146" height="43.36363636363636" as="geometry" />
        </mxCell>
        <mxCell id="yKaiz2Vor4ZhH1M9KWII-9" value="" style="sketch=0;pointerEvents=1;shadow=0;dashed=0;html=1;strokeColor=none;labelPosition=center;verticalLabelPosition=bottom;verticalAlign=top;outlineConnect=0;align=center;shape=mxgraph.office.security.key_permissions;fillColor=#DA4026;" vertex="1" parent="yKaiz2Vor4ZhH1M9KWII-7">
          <mxGeometry y="1.6363636363636365" width="26.614285714285714" height="43.36363636363636" as="geometry" />
        </mxCell>
        <mxCell id="yKaiz2Vor4ZhH1M9KWII-28" value="AA.pub" style="sketch=0;pointerEvents=1;shadow=0;dashed=0;html=1;strokeColor=none;labelPosition=center;verticalLabelPosition=bottom;verticalAlign=top;outlineConnect=0;align=center;shape=mxgraph.office.security.key_permissions;fillColor=#7FBA42;container=0;" vertex="1" parent="1">
          <mxGeometry x="400" y="147" width="24" height="46" as="geometry" />
        </mxCell>
        <mxCell id="yKaiz2Vor4ZhH1M9KWII-35" style="edgeStyle=orthogonalEdgeStyle;rounded=0;orthogonalLoop=1;jettySize=auto;html=1;" edge="1" parent="1" source="yKaiz2Vor4ZhH1M9KWII-30">
          <mxGeometry relative="1" as="geometry">
            <mxPoint x="805" y="135.5" as="targetPoint" />
          </mxGeometry>
        </mxCell>
        <mxCell id="yKaiz2Vor4ZhH1M9KWII-30" value="rjaimes-red" style="image;sketch=0;aspect=fixed;html=1;points=[];align=center;fontSize=12;image=img/lib/mscae/VM_Linux.svg;" vertex="1" parent="1">
          <mxGeometry x="838" y="89.00000000000003" width="101.09" height="93" as="geometry" />
        </mxCell>
        <mxCell id="yKaiz2Vor4ZhH1M9KWII-32" value="" style="sketch=0;pointerEvents=1;shadow=0;dashed=0;html=1;strokeColor=none;labelPosition=center;verticalLabelPosition=bottom;verticalAlign=top;outlineConnect=0;align=center;shape=mxgraph.office.security.key_permissions;fillColor=#DA4026;" vertex="1" parent="1">
          <mxGeometry x="855" y="26.99636363636364" width="26.614285714285714" height="43.36363636363636" as="geometry" />
        </mxCell>
        <mxCell id="yKaiz2Vor4ZhH1M9KWII-33" value="RJ.red" style="sketch=0;pointerEvents=1;shadow=0;dashed=0;html=1;strokeColor=none;labelPosition=center;verticalLabelPosition=bottom;verticalAlign=top;outlineConnect=0;align=center;shape=mxgraph.office.security.key_permissions;fillColor=#7FBA42;container=0;" vertex="1" parent="1">
          <mxGeometry x="891.9971428571429" y="27" width="24.642857142857146" height="43.36363636363636" as="geometry" />
        </mxCell>
        <mxCell id="yKaiz2Vor4ZhH1M9KWII-36" value="RJ.pub" style="sketch=0;pointerEvents=1;shadow=0;dashed=0;html=1;strokeColor=none;labelPosition=center;verticalLabelPosition=bottom;verticalAlign=top;outlineConnect=0;align=center;shape=mxgraph.office.security.key_permissions;fillColor=#7FBA42;container=0;" vertex="1" parent="1">
          <mxGeometry x="451" y="220" width="24.64" height="46" as="geometry" />
        </mxCell>
        <mxCell id="yKaiz2Vor4ZhH1M9KWII-43" style="edgeStyle=orthogonalEdgeStyle;rounded=0;orthogonalLoop=1;jettySize=auto;html=1;" edge="1" parent="1" source="yKaiz2Vor4ZhH1M9KWII-37">
          <mxGeometry relative="1" as="geometry">
            <mxPoint x="811" y="329.6" as="targetPoint" />
          </mxGeometry>
        </mxCell>
        <mxCell id="yKaiz2Vor4ZhH1M9KWII-37" value="jguiao-red" style="image;sketch=0;aspect=fixed;html=1;points=[];align=center;fontSize=12;image=img/lib/mscae/VM_Linux.svg;" vertex="1" parent="1">
          <mxGeometry x="841" y="281.72" width="104.09" height="95.76" as="geometry" />
        </mxCell>
        <mxCell id="yKaiz2Vor4ZhH1M9KWII-44" value="JG.pub" style="sketch=0;pointerEvents=1;shadow=0;dashed=0;html=1;strokeColor=none;labelPosition=center;verticalLabelPosition=bottom;verticalAlign=top;outlineConnect=0;align=center;shape=mxgraph.office.security.key_permissions;fillColor=#7FBA42;container=0;" vertex="1" parent="1">
          <mxGeometry x="448" y="147" width="24.64" height="46" as="geometry" />
        </mxCell>
        <mxCell id="yKaiz2Vor4ZhH1M9KWII-52" style="edgeStyle=orthogonalEdgeStyle;rounded=0;orthogonalLoop=1;jettySize=auto;html=1;" edge="1" parent="1" source="yKaiz2Vor4ZhH1M9KWII-45">
          <mxGeometry relative="1" as="geometry">
            <mxPoint x="809" y="523.8800000000001" as="targetPoint" />
          </mxGeometry>
        </mxCell>
        <mxCell id="yKaiz2Vor4ZhH1M9KWII-45" value="jfraizer-red" style="image;sketch=0;aspect=fixed;html=1;points=[];align=center;fontSize=12;image=img/lib/mscae/VM_Linux.svg;" vertex="1" parent="1">
          <mxGeometry x="843" y="487" width="104.09" height="95.76" as="geometry" />
        </mxCell>
        <mxCell id="yKaiz2Vor4ZhH1M9KWII-46" value="" style="group" connectable="0" vertex="1" parent="1">
          <mxGeometry x="858.72" y="419.16" width="68.63999999999999" height="48.59000000000003" as="geometry" />
        </mxCell>
        <mxCell id="yKaiz2Vor4ZhH1M9KWII-40" value="JF.red" style="sketch=0;pointerEvents=1;shadow=0;dashed=0;html=1;strokeColor=none;labelPosition=center;verticalLabelPosition=bottom;verticalAlign=top;outlineConnect=0;align=center;shape=mxgraph.office.security.key_permissions;fillColor=#7FBA42;container=0;" vertex="1" parent="yKaiz2Vor4ZhH1M9KWII-46">
          <mxGeometry x="44" y="0.4099999999999966" width="24.64" height="42.18" as="geometry" />
        </mxCell>
        <mxCell id="yKaiz2Vor4ZhH1M9KWII-42" value="" style="sketch=0;pointerEvents=1;shadow=0;dashed=0;html=1;strokeColor=none;labelPosition=center;verticalLabelPosition=bottom;verticalAlign=top;outlineConnect=0;align=center;shape=mxgraph.office.security.key_permissions;fillColor=#DA4026;" vertex="1" parent="yKaiz2Vor4ZhH1M9KWII-46">
          <mxGeometry width="26.23" height="48.59" as="geometry" />
        </mxCell>
        <mxCell id="yKaiz2Vor4ZhH1M9KWII-48" value="" style="group" connectable="0" vertex="1" parent="1">
          <mxGeometry x="858.72" y="224.41" width="68.63999999999999" height="48.59000000000003" as="geometry" />
        </mxCell>
        <mxCell id="yKaiz2Vor4ZhH1M9KWII-49" value="JG.red" style="sketch=0;pointerEvents=1;shadow=0;dashed=0;html=1;strokeColor=none;labelPosition=center;verticalLabelPosition=bottom;verticalAlign=top;outlineConnect=0;align=center;shape=mxgraph.office.security.key_permissions;fillColor=#7FBA42;container=0;" vertex="1" parent="yKaiz2Vor4ZhH1M9KWII-48">
          <mxGeometry x="44" y="0.4099999999999966" width="24.64" height="42.18" as="geometry" />
        </mxCell>
        <mxCell id="yKaiz2Vor4ZhH1M9KWII-50" value="" style="sketch=0;pointerEvents=1;shadow=0;dashed=0;html=1;strokeColor=none;labelPosition=center;verticalLabelPosition=bottom;verticalAlign=top;outlineConnect=0;align=center;shape=mxgraph.office.security.key_permissions;fillColor=#DA4026;" vertex="1" parent="yKaiz2Vor4ZhH1M9KWII-48">
          <mxGeometry width="26.23" height="48.59" as="geometry" />
        </mxCell>
        <mxCell id="yKaiz2Vor4ZhH1M9KWII-54" value="JF.pub" style="sketch=0;pointerEvents=1;shadow=0;dashed=0;html=1;strokeColor=none;labelPosition=center;verticalLabelPosition=bottom;verticalAlign=top;outlineConnect=0;align=center;shape=mxgraph.office.security.key_permissions;fillColor=#7FBA42;container=0;" vertex="1" parent="1">
          <mxGeometry x="496" y="145.41" width="24.64" height="47.59" as="geometry" />
        </mxCell>
        <mxCell id="yKaiz2Vor4ZhH1M9KWII-67" value="Ansible Server" style="image;sketch=0;aspect=fixed;html=1;points=[];align=center;fontSize=12;image=img/lib/mscae/VM_Linux.svg;" vertex="1" parent="1">
          <mxGeometry x="432" y="440" width="85.87" height="79" as="geometry" />
        </mxCell>
        <mxCell id="yKaiz2Vor4ZhH1M9KWII-69" style="edgeStyle=orthogonalEdgeStyle;rounded=0;orthogonalLoop=1;jettySize=auto;html=1;" edge="1" parent="1" source="yKaiz2Vor4ZhH1M9KWII-68" target="sqUDbuYJrRxBl_-GvHNo-10">
          <mxGeometry relative="1" as="geometry" />
        </mxCell>
        <mxCell id="yKaiz2Vor4ZhH1M9KWII-68" value="" style="image;aspect=fixed;perimeter=ellipsePerimeter;html=1;align=center;shadow=0;dashed=0;fontColor=#4277BB;labelBackgroundColor=default;fontSize=12;spacingTop=3;image=img/lib/ibm/applications/automation_tools.svg;" vertex="1" parent="1">
          <mxGeometry x="444.93" y="440" width="60" height="60" as="geometry" />
        </mxCell>
      </root>
    </mxGraphModel>
  </diagram>
</mxfile>
